<?xml version="1.0" standalone="no"?>
<!DOCTYPE svg PUBLIC "-//W3C//DTD SVG 20010904//EN"
 "http://www.w3.org/TR/2001/REC-SVG-20010904/DTD/svg10.dtd">
<svg version="1.0" xmlns="http://www.w3.org/2000/svg"
 width="170.000000pt" height="170.000000pt" viewBox="0 0 170.000000 170.000000"
 preserveAspectRatio="xMidYMid meet">

<g transform="translate(0.000000,170.000000) scale(0.100000,-0.100000)"
fill="#000000" stroke="none">
<path d="M30 900 l0 -800 825 0 825 0 0 800 0 800 -825 0 -825 0 0 -800z m965
655 c90 -19 215 -80 287 -139 104 -86 192 -228 223 -357 17 -73 19 -232 5
-299 -72 -321 -387 -554 -710 -525 -80 8 -181 35 -242 66 l-37 19 -57 -95
c-38 -65 -60 -92 -69 -87 -19 11 -345 325 -345 331 1 5 111 81 191 132 5 3 1
25 -10 50 -11 24 -27 82 -37 129 -70 350 173 710 528 779 69 14 197 12 273 -4z"/>
<path d="M700 861 c-85 -59 -250 -173 -367 -253 l-212 -145 82 -79 c45 -44
107 -103 137 -131 l55 -52 84 137 c46 75 96 156 110 178 14 23 39 64 56 90 62
103 123 202 173 282 29 45 49 82 45 81 -5 0 -78 -49 -163 -108z"/>
</g>
</svg>
