<svg version="1.2" baseProfile="tiny-ps" xmlns="http://www.w3.org/2000/svg" viewBox="0 0 1512 1512" width="1512" height="1512">
	<title>cropped-NG-Favicon-white-on-black-512x512px-svg</title>
	<style>
		tspan { white-space:pre }
		.shp0 { fill: #000000 } 
		.shp1 { fill: #ffffff } 
	</style>
	<g id="#000000ff">
		<path id="Layer" fill-rule="evenodd" class="shp0" d="M0 0L1512 0L1512 1512L0 1512L0 0ZM242.19 242.16C242.1 323.87 242.13 405.55 242.19 487.24C503.01 487.32 763.86 487.21 1024.7 487.3C1024.79 748.14 1024.68 1008.99 1024.73 1269.81C1106.45 1269.87 1188.13 1269.84 1269.81 1269.84C1269.87 927.28 1269.84 584.75 1269.84 242.19C927.28 242.13 584.72 242.16 242.19 242.16Z" />
	</g>
	<g id="#ffffffff">
		<path id="Layer" class="shp1" d="M242.19 242.16C584.72 242.16 927.28 242.13 1269.84 242.19C1269.84 584.75 1269.87 927.28 1269.81 1269.84C1188.13 1269.84 1106.45 1269.87 1024.73 1269.81C1024.68 1008.99 1024.79 748.14 1024.7 487.3C763.86 487.21 503.01 487.32 242.19 487.24C242.13 405.55 242.1 323.87 242.19 242.16Z" />
	</g>
</svg>