<svg width="1901" height="673" viewBox="0 0 1901 673" fill="none" xmlns="http://www.w3.org/2000/svg">
<g clip-path="url(#clip0_261_792)">
<path fill-rule="evenodd" clip-rule="evenodd" d="M182.566 164.821H156.579V190.807H182.566V164.821ZM26.5572 138.835H0.570312V164.821H26.5572V190.807H52.5441V164.821H26.5572V138.835ZM182.566 568.871H208.553V594.857H182.566V568.871ZM208.597 465.759V542.842H182.61V568.828H130.592V620.843H104.605V646.829H156.623V672.815H182.61V646.829H208.597V620.843H182.61V646.829H156.623V594.814H104.562V542.798H130.548V516.812H104.562V291.644H208.553V298.775C208.553 344.054 245.258 380.714 290.495 380.714C335.731 380.714 372.436 344.054 372.436 298.775C372.436 253.541 335.775 216.837 290.495 216.837H130.592V190.851H78.5747V216.837H104.562V164.821H78.5747V112.849H52.5878V138.835H104.605V112.849H130.592V138.835H156.579V112.849H290.538C393.217 112.849 476.471 196.1 476.471 298.775C476.471 437.542 330.569 525.693 208.597 465.759Z" fill="#B2ADAC"/>
<path d="M541.657 397.601V328.567C582.869 343.923 629.505 351.578 681.479 351.578C744.565 351.578 776.108 330.492 776.108 288.276C776.108 257.609 756.727 242.254 718.009 242.254H653.567C569.394 242.254 527.308 203.887 527.308 127.198C527.308 42.8096 587.244 0.637207 707.116 0.637207C753.14 0.637207 796.757 7.37429 838.013 20.761V89.7943C796.757 74.439 753.14 66.7832 707.116 66.7832C638.08 66.7832 603.562 86.907 603.562 127.198C603.562 157.865 620.23 173.22 653.611 173.22H718.053C807.607 173.22 852.406 211.587 852.406 288.276C852.406 374.59 795.445 417.724 681.523 417.724C629.461 417.724 582.869 411.031 541.657 397.601Z" fill="#C6171B"/>
<path d="M1045.95 112.849C1137.61 112.849 1183.45 159.659 1183.45 253.234C1183.45 265.702 1182.58 278.17 1180.87 290.638H980.372C980.372 333.204 1011.61 354.509 1074.13 354.509C1104.62 354.509 1135.11 351.622 1165.6 345.891V406.306C1138.96 412.037 1106.54 414.925 1068.39 414.925C958.891 414.925 904.117 363.434 904.117 260.453C904.117 162.021 951.41 112.849 1045.95 112.849ZM980.372 237.66H1109.26V235.342C1109.26 193.519 1088.17 172.652 1045.95 172.652C1005.66 172.652 983.784 194.35 980.372 237.66Z" fill="#C6171B"/>
<path d="M1240.68 414.881V112.849H1299.65L1308.58 156.596C1335.61 127.461 1368.12 112.849 1406.09 112.849C1444.07 112.849 1470.05 126.673 1484.05 154.278C1514.94 126.673 1547.23 112.849 1581 112.849C1650.43 112.849 1685.12 151.128 1685.12 227.642V414.925H1608.87V224.799C1608.87 191.244 1593.73 174.445 1563.41 174.445C1540.8 174.445 1519.01 184.595 1498.1 204.937V414.925H1421.89V225.63C1421.89 191.507 1407.89 174.445 1379.89 174.445C1357.66 174.445 1336.62 184.595 1316.89 204.937V414.925H1240.68V414.881Z" fill="#C6171B"/>
<path d="M1827.04 63.9395H1750.79V3.52441H1827.04V63.9395ZM1827.04 414.881H1750.79V112.849H1827.04V414.881Z" fill="#C6171B"/>
<path d="M561.607 621.019H542.97L584.575 523.024H604.087L646.567 621.019H627.055L615.899 594.289H583.35L589.562 578.54H609.293L593.893 541.748L561.607 621.019Z" fill="#B2ADAC"/>
<path d="M699.941 621.019V523.024H718.797L752.046 597.395L784.596 523.024H802.751V621.019H785.952V552.773L759.352 621.019H743.865L716.741 552.773V621.019H699.941Z" fill="#B2ADAC"/>
<path d="M889.155 549.054V621.019H874.98L872.793 611.832C864.524 617.956 855.731 621.019 846.5 621.019C831.8 621.019 824.45 612.313 824.45 594.901V549.054H842.606V594.42C842.606 602.382 846.062 606.32 853.018 606.32C858.924 606.32 864.918 603.957 871.043 599.276V549.054H889.155Z" fill="#B2ADAC"/>
<path d="M909.061 621.019V549.054H923.104L925.379 558.241C931.679 552.117 938.372 549.054 945.372 549.054V563.71C938.591 563.71 932.554 566.509 927.216 572.153V621.019H909.061Z" fill="#B2ADAC"/>
<path d="M955.041 598.576C955.041 584.271 965.453 577.14 986.278 577.14C991.178 577.14 996.034 577.577 1000.93 578.496V573.071C1000.93 566.64 996.296 563.403 987.022 563.403C979.147 563.403 970.441 564.541 960.86 566.815V552.423C970.441 550.148 979.191 549.01 987.022 549.01C1008.41 549.01 1019.09 556.929 1019.09 572.721V620.975H1008.55L1002.11 614.544C995.859 618.831 988.946 620.975 981.422 620.975C963.835 621.018 955.041 613.538 955.041 598.576ZM986.278 589.477C977.528 589.477 973.197 592.451 973.197 598.401C973.197 604.788 976.872 607.982 984.178 607.982C990.215 607.982 995.815 606.101 1000.98 602.382V590.876C996.384 589.958 991.484 589.477 986.278 589.477Z" fill="#B2ADAC"/>
<path d="M1038.03 537.417H1051.46L1054.22 549.054H1072.33V563.447H1056.23V596.564C1056.23 603.257 1059.12 606.626 1064.94 606.626H1072.33V621.019H1056.15C1044.07 621.019 1038.03 614.544 1038.03 601.639V537.417Z" fill="#B2ADAC"/>
<path d="M1084.01 598.576C1084.01 584.271 1094.43 577.14 1115.25 577.14C1120.15 577.14 1125.01 577.577 1129.91 578.496V573.071C1129.91 566.64 1125.27 563.403 1115.99 563.403C1108.12 563.403 1099.41 564.541 1089.83 566.815V552.423C1099.41 550.148 1108.16 549.01 1115.99 549.01C1137.39 549.01 1148.06 556.929 1148.06 572.721V620.975H1137.52L1131.09 614.544C1124.83 618.831 1117.92 620.975 1110.39 620.975C1092.81 621.018 1084.01 613.538 1084.01 598.576ZM1115.25 589.477C1106.5 589.477 1102.17 592.451 1102.17 598.401C1102.17 604.788 1105.84 607.982 1113.15 607.982C1119.19 607.982 1124.79 606.101 1129.95 602.382V590.876C1125.36 589.958 1120.46 589.477 1115.25 589.477Z" fill="#B2ADAC"/>
<path d="M1283.6 616.906C1275.15 620.1 1265.57 621.718 1254.81 621.718C1219.63 621.718 1202.05 604.701 1202.05 570.665C1202.05 538.467 1219.63 522.368 1254.81 522.368C1265.53 522.368 1275.15 523.987 1283.6 527.18V543.629C1275.15 539.955 1266.01 538.161 1256.17 538.161C1232.63 538.161 1220.86 549.01 1220.86 570.709C1220.86 594.245 1232.63 606.013 1256.17 606.013C1266.01 606.013 1275.11 604.176 1283.6 600.545V616.906Z" fill="#B2ADAC"/>
<path d="M1298.43 585.014C1298.43 560.91 1310.28 548.835 1334.08 548.835C1357.88 548.835 1369.74 560.91 1369.74 585.014C1369.74 609.075 1357.88 621.106 1334.08 621.106C1310.37 621.15 1298.51 609.119 1298.43 585.014ZM1334.04 607.282C1345.68 607.282 1351.49 599.757 1351.49 584.752C1351.49 570.097 1345.68 562.747 1334.04 562.747C1322.4 562.747 1316.58 570.053 1316.58 584.752C1316.58 599.801 1322.4 607.282 1334.04 607.282Z" fill="#B2ADAC"/>
<path d="M1386.19 621.019V549.054H1400.23L1402.37 559.466C1408.8 552.51 1416.55 549.054 1425.6 549.054C1434.66 549.054 1440.83 552.335 1444.2 558.941C1451.55 552.379 1459.25 549.054 1467.3 549.054C1483.83 549.054 1492.1 558.154 1492.1 576.396V621.019H1473.95V575.696C1473.95 567.691 1470.36 563.71 1463.14 563.71C1457.76 563.71 1452.55 566.116 1447.57 570.972V620.975H1429.41V575.871C1429.41 567.734 1426.09 563.666 1419.39 563.666C1414.1 563.666 1409.11 566.072 1404.39 570.928V620.931H1386.19V621.019Z" fill="#B2ADAC"/>
<path d="M1512.01 551.985C1521.55 550.017 1531.65 549.054 1542.28 549.054C1566.74 549.054 1578.94 560.472 1578.94 583.265C1578.94 608.419 1567.57 621.019 1544.82 621.019C1539.96 621.019 1535.11 619.881 1530.16 617.606V647.048H1512.01V551.985ZM1530.16 602.251C1534.67 604.701 1539.57 605.97 1544.78 605.97C1555.58 605.97 1561.01 598.357 1561.01 583.133C1561.01 570.184 1555.01 563.753 1543.07 563.753C1537.91 563.753 1533.62 564.06 1530.21 564.716V602.251H1530.16Z" fill="#B2ADAC"/>
<path d="M1592.03 598.576C1592.03 584.271 1602.44 577.14 1623.26 577.14C1628.16 577.14 1633.02 577.577 1637.92 578.496V573.071C1637.92 566.64 1633.28 563.403 1624.01 563.403C1616.13 563.403 1607.43 564.541 1597.84 566.815V552.423C1607.43 550.148 1616.17 549.01 1624.01 549.01C1645.4 549.01 1656.07 556.929 1656.07 572.721V620.975H1645.53L1639.1 614.544C1632.84 618.831 1625.93 620.975 1618.41 620.975C1600.82 621.018 1592.03 613.538 1592.03 598.576ZM1623.31 589.477C1614.56 589.477 1610.22 592.451 1610.22 598.401C1610.22 604.788 1613.9 607.982 1621.21 607.982C1627.24 607.982 1632.84 606.101 1638.01 602.382V590.876C1633.37 589.958 1628.51 589.477 1623.31 589.477Z" fill="#B2ADAC"/>
<path d="M1676.07 621.019V549.054H1690.11L1692.39 559.597C1699.3 552.554 1707.13 549.054 1715.97 549.054C1732.98 549.054 1741.52 557.935 1741.52 575.653V621.019H1723.36V575.653C1723.36 567.691 1719.42 563.753 1711.5 563.753C1705.6 563.753 1699.87 566.116 1694.22 570.797V621.019H1676.07V621.019Z" fill="#B2ADAC"/>
<path d="M1752.85 549.054H1772.1L1790.25 600.851L1808.01 549.054H1826.91L1797.03 623.118C1791.74 636.199 1783.25 645.473 1771.62 651.029L1762.87 638.605C1770.92 635.105 1776.73 629.374 1780.41 621.412L1752.85 549.054Z" fill="#B2ADAC"/>
<path d="M1880.38 51.2529L1872.28 37.21H1867.91V51.2529H1862.13V16.1238H1874.25C1876.96 16.1238 1879.24 16.605 1881.12 17.5237C1883 18.4861 1884.4 19.711 1885.32 21.3297C1886.24 22.9046 1886.72 24.6982 1886.72 26.6231C1886.72 28.898 1886.06 30.9979 1884.71 32.879C1883.39 34.7601 1881.34 36.0288 1878.58 36.685L1887.29 51.2529H1880.38ZM1867.86 32.5728H1874.25C1876.39 32.5728 1878.01 32.0478 1879.11 30.9541C1880.2 29.8604 1880.77 28.4168 1880.77 26.6231C1880.77 24.7857 1880.24 23.3858 1879.15 22.3359C1878.06 21.286 1876.44 20.8047 1874.25 20.8047H1867.86V32.5728Z" fill="#B2ADAC"/>
<path d="M1887.55 8.64281C1891.79 11.0927 1895.07 14.4612 1897.44 18.8359C1899.8 23.1669 1900.98 28.1104 1900.98 33.6663C1900.98 39.1784 1899.8 44.1219 1897.44 48.4966C1895.07 52.8714 1891.79 56.2837 1887.55 58.7335C1883.31 61.1834 1878.45 62.4083 1872.98 62.4083C1867.51 62.4083 1862.66 61.1834 1858.37 58.7335C1854.08 56.2837 1850.8 52.8714 1848.44 48.4966C1846.08 44.1219 1844.89 39.1784 1844.89 33.6663C1844.89 28.1541 1846.08 23.2107 1848.44 18.8359C1850.8 14.5049 1854.13 11.0927 1858.37 8.64281C1862.66 6.19296 1867.51 4.96802 1872.98 4.96802C1878.45 4.96802 1883.31 6.19296 1887.55 8.64281ZM1860.21 11.7489C1856.58 13.805 1853.78 16.6923 1851.85 20.4983C1849.88 24.2606 1848.92 28.6791 1848.92 33.6663C1848.92 38.6535 1849.88 43.0282 1851.85 46.7905C1853.82 50.5527 1856.62 53.4838 1860.21 55.5837C1863.79 57.6836 1868.08 58.7335 1872.98 58.7335C1877.79 58.7335 1882.04 57.6836 1885.67 55.5837C1889.3 53.4838 1892.1 50.5527 1894.02 46.7905C1895.99 43.0282 1896.96 38.6535 1896.96 33.6663C1896.96 28.6791 1895.99 24.3044 1894.02 20.4983C1892.06 16.7361 1889.3 13.805 1885.71 11.7489C1882.12 9.69274 1877.88 8.68654 1872.98 8.68654C1868.08 8.68654 1863.84 9.69274 1860.21 11.7489Z" fill="#B2ADAC"/>
</g>
<defs>
<clipPath id="clip0_261_792">
<rect width="1901" height="673" fill="white"/>
</clipPath>
</defs>
</svg>
