<?xml version="1.0" encoding="utf-8"?>
<!-- Generator: Adobe Illustrator 25.0.1, SVG Export Plug-In . SVG Version: 6.00 Build 0)  -->
<svg version="1.0" id="katman_1" xmlns="http://www.w3.org/2000/svg" xmlns:xlink="http://www.w3.org/1999/xlink" x="0px" y="0px"
	 viewBox="0 0 560 400" style="enable-background:new 0 0 560 400;" xml:space="preserve">
<style type="text/css">
	.st0{fill:#FBCB07;}
	.st1{fill:#FFFFFF;}
	.st2{fill:#192847;}
</style>
<g transform="matrix(1.35937 0 0 -1.35937 145 334.987)">
	<path class="st0" d="M196.1,75.6l-79.9,5.1c-0.3,0-0.7-0.1-0.8-0.4c-0.2-0.3-0.2-0.6,0-0.9l10.1-16.7L98.6,46.6
		c-4.2,5.4-8.9,10.9-14,16.5l66.8,64.6l13-13c0.2-0.2,0.5-0.3,0.8-0.2c0.3,0.1,0.5,0.3,0.6,0.6l31,80.6c0.3,0.7-0.5,1.4-1.2,1.2
		l-80.6-31c-0.3-0.1-0.5-0.4-0.6-0.7c-0.1-0.3,0-0.6,0.2-0.8l13-13L63.2,84.6c-5.6,5.1-11.1,9.8-16.5,14l16.1,26.7l16.8-10.1
		c0.3-0.2,0.6-0.2,0.9,0c0.3,0.2,0.4,0.5,0.4,0.8l-5.1,79.9c0,0.4-0.3,0.7-0.7,0.8c-0.4,0.1-0.8-0.1-1-0.4L40.1,140
		c-0.1-0.1-0.1-0.2-0.1-0.4L9.6,89.1c-0.1-0.2-0.2-0.5-0.1-0.7c0.1-0.2,0.2-0.4,0.4-0.6c8.7-4.6,20.8-13.7,32.7-24.5L1.7,21L21,1.7
		l42.4,41C74.2,30.8,83.3,18.6,87.9,9.9c0.1-0.2,0.3-0.4,0.6-0.4c0.2-0.1,0.5,0,0.7,0.1l50.5,30.3c0.1,0,0.3,0.1,0.4,0.1L196.5,74
		c0.3,0.2,0.5,0.6,0.4,1C196.8,75.3,196.5,75.6,196.1,75.6"/>
	<path class="st1" d="M79.1,116C79.1,116,79.1,116,79.1,116L79.1,116z M165.6,115.9L165.6,115.9
		C165.6,115.9,165.6,115.9,165.6,115.9z M10.7,89.4C10.7,89.4,10.7,89.4,10.7,89.4C10.7,89.4,10.7,89.4,10.7,89.4z M116,79.1
		C116,79.1,116,79.1,116,79.1L116,79.1z M196,74L196,74L196,74z M139.5,41.6C139.5,41.6,139.5,41.6,139.5,41.6
		C139.5,41.6,139.5,41.6,139.5,41.6z M88.3,11C88.3,11,88.3,11,88.3,11L88.3,11z M89.4,10.7C89.4,10.7,89.4,10.7,89.4,10.7
		C89.4,10.7,89.4,10.7,89.4,10.7z M4.1,21l17-17l41.2,39.8c0.3,0.3,0.8,0.5,1.2,0.5c0.5,0,0.9-0.2,1.2-0.6
		C75.2,32.2,84.2,20.2,89,11.5l49.8,29.9c0.2,0.1,0.3,0.2,0.5,0.2l54.1,32.5L117.6,79l9.3-15.4c0.5-0.8,0.2-1.8-0.6-2.3L99.5,45.2
		c-0.7-0.4-1.7-0.3-2.2,0.4c-4.2,5.3-8.9,10.9-13.9,16.4c-0.6,0.7-0.6,1.7,0.1,2.4l66.8,64.6c0.7,0.6,1.7,0.6,2.4,0l12.1-12.1
		l29.9,77.8l-77.8-29.9l12.1-12.1c0.7-0.7,0.7-1.7,0-2.4L64.4,83.4c-0.6-0.7-1.7-0.7-2.4-0.1c-5.6,5.1-11.1,9.7-16.4,13.9
		c-0.7,0.5-0.8,1.5-0.4,2.2l16.1,26.7c0.2,0.4,0.6,0.7,1,0.8c0.4,0.1,0.9,0,1.3-0.2l15.4-9.3l-4.9,75.9l-32.5-54.1
		c0-0.2-0.1-0.4-0.2-0.5L11.5,89c8.7-4.8,20.7-13.8,32.3-24.3c0.3-0.3,0.5-0.7,0.6-1.2c0-0.5-0.2-0.9-0.5-1.2L4.1,21z M21,0
		c-0.4,0-0.9,0.2-1.2,0.5L0.5,19.8c-0.7,0.7-0.7,1.7,0,2.4l39.8,41.1C28.9,73.5,17.4,82,9.2,86.4c-0.6,0.3-1.1,0.9-1.3,1.6
		c-0.2,0.7-0.1,1.4,0.3,2l30.2,50.3c0.1,0.2,0.1,0.4,0.3,0.6l33.9,56.5c0.6,1,1.7,1.4,2.8,1.2c1.1-0.3,1.9-1.2,2-2.4l5.1-80
		c0.1-1-0.4-1.9-1.2-2.4c-0.8-0.5-1.8-0.5-2.7,0L63.3,123L48.9,99c4.7-3.7,9.4-7.7,14.2-12l62.3,64.4l-11.8,11.8
		c-0.6,0.6-0.9,1.5-0.7,2.4c0.2,0.9,0.8,1.6,1.6,1.9l80.6,31c0.9,0.4,2,0.1,2.7-0.6c0.7-0.7,1-1.8,0.6-2.7l-31-80.6
		c-0.3-0.8-1-1.4-1.9-1.6c-0.9-0.2-1.8,0.1-2.4,0.7l-11.8,11.8L87,63.1c4.3-4.8,8.4-9.6,12.1-14.2l24,14.4l-9.2,15.3
		c-0.5,0.8-0.5,1.9,0,2.7c0.5,0.8,1.4,1.3,2.4,1.2l79.9-5.1c1.1-0.1,2.1-0.9,2.4-2c0.3-1.1-0.2-2.3-1.2-2.8l-56.5-33.9
		c-0.2-0.1-0.4-0.2-0.6-0.3L90,8.1c-0.6-0.4-1.3-0.5-2-0.3c-0.7,0.2-1.3,0.7-1.6,1.3c-4.3,8.2-12.9,19.7-23,31.1L22.2,0.5
		C21.9,0.2,21.4,0,21,0L21,0z"/>
	<path class="st1" d="M184.6,177.5l-26.3-47.7l4.9-4.9L184.6,177.5z"/>
	<path class="st1" d="M176,67.3L88.5,24l3.3-5.4L176,67.3z"/>
	<path class="st1" d="M72.9,167.7l2.1-43.9l-5.3,3.2L72.9,167.7z"/>
	<path class="st2" d="M196.1,75.6l-79.9,5.1c-0.3,0-0.7-0.1-0.8-0.4c-0.2-0.3-0.2-0.6,0-0.9l10.1-16.7L98.6,46.6
		c-4.2,5.4-8.9,10.9-14,16.5l66.8,64.6l13-13c0.2-0.2,0.5-0.3,0.8-0.2c0.3,0.1,0.5,0.3,0.6,0.6l31,80.6c0.3,0.7-0.5,1.4-1.2,1.2
		l-80.6-31c-0.3-0.1-0.5-0.4-0.6-0.7c-0.1-0.3,0-0.6,0.2-0.8l13-13L63.2,84.6c-5.6,5.1-11.1,9.8-16.5,14l16.1,26.7l16.8-10.1
		c0.3-0.2,0.6-0.2,0.9,0c0.3,0.2,0.4,0.5,0.4,0.8l-5.1,79.9c0,0.4-0.3,0.7-0.7,0.8c-0.4,0.1-0.8-0.1-1-0.4L40.1,140
		c-0.1-0.1-0.1-0.2-0.1-0.4L9.6,89.1c-0.1-0.2-0.2-0.5-0.1-0.7c0.1-0.2,0.2-0.4,0.4-0.6c8.7-4.6,20.8-13.7,32.7-24.5L1.7,21L21,1.7
		l42.4,41C74.2,30.8,83.3,18.6,87.9,9.9c0.1-0.2,0.3-0.4,0.6-0.4c0.2-0.1,0.5,0,0.7,0.1l50.5,30.3c0.1,0,0.3,0.1,0.4,0.1L196.5,74
		c0.3,0.2,0.5,0.6,0.4,1C196.8,75.3,196.5,75.6,196.1,75.6"/>
	<g>
		<path class="st0" d="M79.1,116C79.1,116,79.1,116,79.1,116L79.1,116z M165.6,115.9L165.6,115.9
			C165.6,115.9,165.6,115.9,165.6,115.9z M10.7,89.4C10.7,89.4,10.7,89.4,10.7,89.4C10.7,89.4,10.7,89.4,10.7,89.4z M116,79.1
			C116,79.1,116,79.1,116,79.1L116,79.1z M196,74L196,74L196,74z M139.5,41.6C139.5,41.6,139.5,41.6,139.5,41.6
			C139.5,41.6,139.5,41.6,139.5,41.6z M88.3,11C88.3,11,88.3,11,88.3,11L88.3,11z M89.4,10.7C89.4,10.7,89.4,10.7,89.4,10.7
			C89.4,10.7,89.4,10.7,89.4,10.7z M4.1,21l17-17l41.2,39.8c0.3,0.3,0.8,0.5,1.2,0.5c0.5,0,0.9-0.2,1.2-0.6
			C75.2,32.2,84.2,20.2,89,11.5l49.8,29.9c0.2,0.1,0.3,0.2,0.5,0.2l54.1,32.5L117.6,79l9.3-15.4c0.5-0.8,0.2-1.8-0.6-2.3L99.5,45.2
			c-0.7-0.4-1.7-0.3-2.2,0.4c-4.2,5.3-8.9,10.9-13.9,16.4c-0.6,0.7-0.6,1.7,0.1,2.4l66.8,64.6c0.7,0.6,1.7,0.6,2.4,0l12.1-12.1
			l29.9,77.8l-77.8-29.9l12.1-12.1c0.7-0.7,0.7-1.7,0-2.4L64.4,83.4c-0.6-0.7-1.7-0.7-2.4-0.1c-5.6,5.1-11.1,9.7-16.4,13.9
			c-0.7,0.5-0.8,1.5-0.4,2.2l16.1,26.7c0.2,0.4,0.6,0.7,1,0.8c0.4,0.1,0.9,0,1.3-0.2l15.4-9.3l-4.9,75.9l-32.5-54.1
			c0-0.2-0.1-0.4-0.2-0.5L11.5,89c8.7-4.8,20.7-13.8,32.3-24.3c0.3-0.3,0.5-0.7,0.6-1.2c0-0.5-0.2-0.9-0.5-1.2L4.1,21z M21,0
			c-0.4,0-0.9,0.2-1.2,0.5L0.5,19.8c-0.7,0.7-0.7,1.7,0,2.4l39.8,41.1C28.9,73.5,17.4,82,9.2,86.4c-0.6,0.3-1.1,0.9-1.3,1.6
			c-0.2,0.7-0.1,1.4,0.3,2l30.2,50.3c0.1,0.2,0.1,0.4,0.3,0.6l33.9,56.5c0.6,1,1.7,1.4,2.8,1.2c1.1-0.3,1.9-1.2,2-2.4l5.1-80
			c0.1-1-0.4-1.9-1.2-2.4c-0.8-0.5-1.8-0.5-2.7,0L63.3,123L48.9,99c4.7-3.7,9.4-7.7,14.2-12l62.3,64.4l-11.8,11.8
			c-0.6,0.6-0.9,1.5-0.7,2.4c0.2,0.9,0.8,1.6,1.6,1.9l80.6,31c0.9,0.4,2,0.1,2.7-0.6c0.7-0.7,1-1.8,0.6-2.7l-31-80.6
			c-0.3-0.8-1-1.4-1.9-1.6c-0.9-0.2-1.8,0.1-2.4,0.7l-11.8,11.8L87,63.1c4.3-4.8,8.4-9.6,12.1-14.2l24,14.4l-9.2,15.3
			c-0.5,0.8-0.5,1.9,0,2.7c0.5,0.8,1.4,1.3,2.4,1.2l79.9-5.1c1.1-0.1,2.1-0.9,2.4-2c0.3-1.1-0.2-2.3-1.2-2.8l-56.5-33.9
			c-0.2-0.1-0.4-0.2-0.6-0.3L90,8.1c-0.6-0.4-1.3-0.5-2-0.3c-0.7,0.2-1.3,0.7-1.6,1.3c-4.3,8.2-12.9,19.7-23,31.1L22.2,0.5
			C21.9,0.2,21.4,0,21,0L21,0z"/>
		<path class="st0" d="M184.6,177.5l-26.3-47.7l4.9-4.9L184.6,177.5z"/>
		<path class="st0" d="M176,67.3L88.5,24l3.3-5.4L176,67.3z"/>
		<path class="st0" d="M72.9,167.7l2.1-43.9l-5.3,3.2L72.9,167.7z"/>
	</g>
</g>
</svg>
